<?xml version="1.0" ?><!DOCTYPE svg  PUBLIC '-//W3C//DTD SVG 1.1 Tiny//EN'  'http://www.w3.org/Graphics/SVG/1.1/DTD/svg11-tiny.dtd'><svg baseProfile="tiny" height="128px" id="Layer_1" overflow="scroll" version="1.1" viewBox="0 0 128 128" width="128px" xml:space="preserve" xmlns="http://www.w3.org/2000/svg" xmlns:xlink="http://www.w3.org/1999/xlink"><g><path d="M69.5,35.7h-0.2c-3.4-2.4-0.2-7.7-0.1-10c0.1-0.5,0.2-0.9,0.2-1.4c0-3.3-2.3-6-5.2-6c-2.9,0-5.2,2.7-5.2,6   c0,0.5,0.1,1,0.2,1.5c0.1,2.4,2.8,7.2-0.3,9.9h-0.2c-1.6,0-2.9,1.3-2.9,2.9v0.1c0,1.6,1.3,2.9,2.9,2.9h10.9c1.6,0,2.9-1.3,2.9-2.9   v-0.1C72.3,37,71.1,35.7,69.5,35.7" fill="#F1D27A"/><path d="M75.3,46.1H52.7v-5.5c0-0.9,0.7-1.7,1.7-1.7h19.3c0.9,0,1.7,0.7,1.7,1.7V46.1z" fill="#7ACCCE"/><path d="M63.3,22c0,0.7-0.6,1.3-1.3,1.3c-0.7,0-1.3-0.6-1.3-1.3c0-0.7,0.6-1.3,1.3-1.3C62.7,20.7,63.3,21.3,63.3,22   " fill="#F2E099"/><path d="M77.9,109.7H50.1c-1.6,0-3-1.3-3-3V52c0-3.6,2.9-6.5,6.5-6.5h20.8c3.6,0,6.5,2.9,6.5,6.5v54.7   C80.9,108.4,79.5,109.7,77.9,109.7" fill="#F7B2B8"/><path d="M65.1,44.8L65.1,44.8c-0.2,0-0.4-0.1-0.4-0.3v-4.4c0-0.2,0.2-0.3,0.4-0.3h0c0.2,0,0.4,0.1,0.4,0.3v4.4   C65.4,44.7,65.3,44.8,65.1,44.8" fill="#F7B2B8"/><path d="M67.2,44.8L67.2,44.8c-0.2,0-0.4-0.1-0.4-0.3v-4.4c0-0.2,0.2-0.3,0.4-0.3h0c0.2,0,0.4,0.1,0.4,0.3v4.4   C67.6,44.7,67.4,44.8,67.2,44.8" fill="#F7B2B8"/><path d="M69.4,44.8L69.4,44.8c-0.2,0-0.4-0.1-0.4-0.3v-4.4c0-0.2,0.2-0.3,0.4-0.3h0c0.2,0,0.4,0.1,0.4,0.3v4.4   C69.7,44.7,69.6,44.8,69.4,44.8" fill="#F7B2B8"/><path d="M71.5,44.8L71.5,44.8c-0.2,0-0.4-0.1-0.4-0.3v-4.4c0-0.2,0.2-0.3,0.4-0.3h0c0.2,0,0.4,0.1,0.4,0.3v4.4   C71.9,44.7,71.7,44.8,71.5,44.8" fill="#F7B2B8"/><path d="M73.7,44.8L73.7,44.8c-0.2,0-0.4-0.1-0.4-0.3v-4.4c0-0.2,0.2-0.3,0.4-0.3h0c0.2,0,0.4,0.1,0.4,0.3v4.4   C74.1,44.7,73.9,44.8,73.7,44.8" fill="#F7B2B8"/><path d="M52.8,106.6h-1.2c-0.5,0-0.8-2.3-0.8-5V54.3c0-2.8,0.4-5,0.8-5h1.2c0.5,0,0.8,2.3,0.8,5v47.3   C53.7,104.4,53.3,106.6,52.8,106.6" fill="#F9C7C9"/><path d="M64.1,18.3C64.1,18.3,64.1,18.3,64.1,18.3l0,20.6h8.3c0-0.1,0-0.2,0-0.3v-0.1c0-1.6-1.3-2.9-2.9-2.9h-0.2   c-3.4-2.4-0.2-7.7-0.1-10c0.1-0.5,0.2-0.9,0.2-1.4C69.3,21,66.9,18.3,64.1,18.3" fill="#DEB867"/><path d="M73.6,38.9H64v6.6h10.3c0.3,0,0.6,0,0.9,0.1v-5C75.3,39.7,74.6,38.9,73.6,38.9 M73.7,44.8   c-0.2,0-0.4-0.1-0.4-0.3v-4.4c0-0.2,0.2-0.3,0.4-0.3h0c0.2,0,0.4,0.1,0.4,0.3v4.4C74.1,44.7,73.9,44.8,73.7,44.8L73.7,44.8z    M71.5,44.8c-0.2,0-0.4-0.1-0.4-0.3v-4.4c0-0.2,0.2-0.3,0.4-0.3h0c0.2,0,0.4,0.1,0.4,0.3v4.4C71.9,44.7,71.7,44.8,71.5,44.8   L71.5,44.8z M69.4,44.8c-0.2,0-0.4-0.1-0.4-0.3v-4.4c0-0.2,0.2-0.3,0.4-0.3h0c0.2,0,0.4,0.1,0.4,0.3v4.4   C69.7,44.7,69.6,44.8,69.4,44.8L69.4,44.8z M67.2,44.8c-0.2,0-0.4-0.1-0.4-0.3v-4.4c0-0.2,0.2-0.3,0.4-0.3h0c0.2,0,0.4,0.1,0.4,0.3   v4.4C67.6,44.7,67.4,44.8,67.2,44.8L67.2,44.8z M65.1,44.8c-0.2,0-0.4-0.1-0.4-0.3v-4.4c0-0.2,0.2-0.3,0.4-0.3h0   c0.2,0,0.4,0.1,0.4,0.3v4.4C65.4,44.7,65.3,44.8,65.1,44.8L65.1,44.8z" fill="#71B8BC"/><path d="M74.4,45.5H64v64.2h13.8c1.6,0,3-1.3,3-3V52c0-3.3-2.4-6-5.6-6.4C75,45.5,74.7,45.5,74.4,45.5" fill="#F496A7"/><g><path d="M54.3,44.8L54.3,44.8c-0.2,0-0.4-0.1-0.4-0.3v-4.4c0-0.2,0.2-0.3,0.4-0.3h0c0.2,0,0.4,0.1,0.4,0.3v4.4    C54.6,44.7,54.5,44.8,54.3,44.8" fill="#FFFFFF"/><path d="M56.4,44.8L56.4,44.8c-0.2,0-0.4-0.1-0.4-0.3v-4.4c0-0.2,0.2-0.3,0.4-0.3h0c0.2,0,0.4,0.1,0.4,0.3v4.4    C56.8,44.7,56.6,44.8,56.4,44.8" fill="#FFFFFF"/><path d="M58.6,44.8L58.6,44.8c-0.2,0-0.4-0.1-0.4-0.3v-4.4c0-0.2,0.2-0.3,0.4-0.3h0c0.2,0,0.4,0.1,0.4,0.3v4.4    C58.9,44.7,58.8,44.8,58.6,44.8" fill="#FFFFFF"/><path d="M60.7,44.8L60.7,44.8c-0.2,0-0.4-0.1-0.4-0.3v-4.4c0-0.2,0.2-0.3,0.4-0.3h0c0.2,0,0.4,0.1,0.4,0.3v4.4    C61.1,44.7,60.9,44.8,60.7,44.8" fill="#FFFFFF"/><path d="M62.9,44.8L62.9,44.8c-0.2,0-0.4-0.1-0.4-0.3v-4.4c0-0.2,0.2-0.3,0.4-0.3h0c0.2,0,0.4,0.1,0.4,0.3v4.4    C63.3,44.7,63.1,44.8,62.9,44.8" fill="#FFFFFF"/><path d="M65.1,39.8L65.1,39.8c-0.2,0-0.4,0.1-0.4,0.3v4.4c0,0.2,0.2,0.3,0.4,0.3h0c0.2,0,0.4-0.1,0.4-0.3v-4.4    C65.4,39.9,65.3,39.8,65.1,39.8" fill="#FFFFFF"/><path d="M67.2,39.8L67.2,39.8c-0.2,0-0.4,0.1-0.4,0.3v4.4c0,0.2,0.2,0.3,0.4,0.3h0c0.2,0,0.4-0.1,0.4-0.3v-4.4    C67.6,39.9,67.4,39.8,67.2,39.8" fill="#FFFFFF"/><path d="M69.4,39.8L69.4,39.8c-0.2,0-0.4,0.1-0.4,0.3v4.4c0,0.2,0.2,0.3,0.4,0.3h0c0.2,0,0.4-0.1,0.4-0.3v-4.4    C69.7,39.9,69.6,39.8,69.4,39.8" fill="#FFFFFF"/><path d="M71.5,39.8L71.5,39.8c-0.2,0-0.4,0.1-0.4,0.3v4.4c0,0.2,0.2,0.3,0.4,0.3h0c0.2,0,0.4-0.1,0.4-0.3v-4.4    C71.9,39.9,71.7,39.8,71.5,39.8" fill="#FFFFFF"/><path d="M73.7,39.8L73.7,39.8c-0.2,0-0.4,0.1-0.4,0.3v4.4c0,0.2,0.2,0.3,0.4,0.3h0c0.2,0,0.4-0.1,0.4-0.3v-4.4    C74.1,39.9,73.9,39.8,73.7,39.8" fill="#FFFFFF"/></g></g></svg>